# xmcd
#
# Track frame offsets:
# 182
# 19607
# 36195
# 58590
# 80820
# 103190
# 129282
# 147165
# 165915
# 189295
# 206795
# 225707
#
# Disc length: 3387 seconds
#
#
# Revision: 4
# Processed by: cddbd v1.5.2PL0 Copyright (c) Steve Scherf et al.
# Submitted via: FreeRIP 2.945 
#
DISCID=9b0d390c
DTITLE=Renato Zero - Quando non sei più di nessuno
DYEAR=1993
DGENRE=Cantautori
TTITLE0=Il ritorno
TTITLE1=Una magia
TTITLE2=Che ti do
TTITLE3=L' altra bianca
TTITLE4=Amore al verde
TTITLE5=E ci sei
TTITLE6=Oltre ogni limite
TTITLE7=Quando finisce il male
TTITLE8=Pipistrelli
TTITLE9=Figli della guerra
TTITLE10=Casal de' pazzi
TTITLE11=Ave Maria
EXTD=
EXTT0=
EXTT1=
EXTT2=
EXTT3=
EXTT4=
EXTT5=
EXTT6=
EXTT7=
EXTT8=
EXTT9=
EXTT10=
EXTT11=
PLAYORDER=
